<svg width="53" height="48" viewBox="0 0 53 48" fill="none" xmlns="http://www.w3.org/2000/svg">
<path fill-rule="evenodd" clip-rule="evenodd" d="M24.4898 0.0442695C22.9474 0.134152 21.2036 0.441683 19.5701 0.911918C17.7134 1.44634 17.6146 1.5346 17.5936 2.67636L17.5834 3.23496L16.8374 3.57032C9.54308 6.84987 4.61781 14.6928 4.57891 23.0904L4.57251 24.4615L4.09903 24.7662C3.27525 25.2962 3.06014 25.8664 3.06014 27.52V28.8795H1.95809C0.00829315 28.8795 -0.241144 29.1588 0.166223 30.8864C0.599184 32.7228 2.0043 34.2285 3.8176 34.7991L4.5328 35.024H26.0133H47.4937L48.2089 34.7991C50.0222 34.2285 51.4274 32.7228 51.8603 30.8864C52.2634 29.1769 51.9993 28.8795 50.077 28.8795H48.9664V27.52C48.9664 25.8664 48.7513 25.2962 47.9275 24.7662L47.454 24.4615L47.4484 23.1774C47.4121 14.6948 42.5199 6.86632 35.1984 3.57448L34.4432 3.23496L34.4329 2.67636C34.4126 1.56354 34.2433 1.41039 32.4719 0.902066C29.9036 0.165027 27.2706 -0.117926 24.4898 0.0442695ZM27.5365 12.3502C27.5364 22.421 27.5245 23.1648 27.3588 23.4946C26.8126 24.5819 25.214 24.5819 24.6678 23.4946C24.502 23.1648 24.4901 22.421 24.49 12.3502L24.4898 1.55918H26.0133H27.5367L27.5365 12.3502ZM22.9664 12.5094C22.9664 24.6977 22.914 23.9021 23.7791 24.8487C25.0334 26.221 26.9931 26.221 28.2474 24.8487C29.1125 23.9021 29.0601 24.6977 29.0601 12.5094C29.0601 2.34131 29.0697 1.7624 29.2379 1.76362C29.5375 1.76586 31.2572 2.14103 32.0593 2.37919L32.818 2.60436L32.8206 9.21658C32.8242 18.3634 32.938 19.1373 34.6409 21.6007C36.8444 24.7882 39.5434 25.922 44.9547 25.9332C47.5455 25.9384 47.443 25.8654 47.443 27.7048V28.8795H26.0133H4.58358V27.6292C4.58358 25.8406 4.44668 25.9349 7.05043 25.9315C9.45432 25.9285 10.8315 25.8125 11.8797 25.525C15.9649 24.4042 19.0378 20.5515 19.1172 16.451C19.1354 15.5129 18.9871 15.2701 18.3961 15.2701C17.8148 15.2701 17.6829 15.4948 17.5807 16.6585C17.2751 20.1392 15.0484 22.896 11.6422 24.0107C11.0022 24.2201 10.6903 24.2475 8.51913 24.2856L6.10702 24.3279V23.1466C6.10702 15.5395 10.3029 8.55653 16.843 5.27931L17.5751 4.91246L17.6047 9.06515C17.6382 13.7553 17.6191 13.6451 18.3961 13.6451C19.189 13.6451 19.1541 13.8983 19.1866 7.90998L19.2154 2.60232L19.9484 2.38579C20.7919 2.13646 22.402 1.78099 22.7379 1.76982L22.9664 1.7623V12.5094ZM36.982 6.33657C42.6101 10.0376 45.9195 16.2586 45.9195 23.1372V24.3092H43.7522C39.3748 24.3092 36.7892 22.8617 35.209 19.5267C34.443 17.9098 34.443 17.9096 34.443 11.0379V4.9085L35.2301 5.30531C35.6629 5.52357 36.4514 5.98761 36.982 6.33657ZM50.3349 30.733C50.0384 31.7441 49.3181 32.603 48.3792 33.0652L47.7011 33.399H26.0133H4.32541L3.64738 33.0652C2.70843 32.603 1.98815 31.7441 1.69159 30.733L1.62456 30.5045H26.0133H50.402L50.3349 30.733ZM6.1578 40.2582C4.091 40.6697 2.16345 41.0577 1.8743 41.1205C0.352996 41.4504 -0.402832 43.007 0.292567 44.3782C0.793168 45.3655 0.84527 45.3852 5.45093 46.3297L9.50936 47.1621L28.6539 47.1927C41.3755 47.213 48.0656 47.1881 48.595 47.1186C53.0364 46.5357 53.1254 40.2413 48.7012 39.6018C48.2555 39.5374 41.0904 39.5024 28.9586 39.5053L9.91561 39.51L6.1578 40.2582ZM41.3492 41.8336V42.5456L26.7409 42.5192L12.1326 42.4928L11.7092 42.1994C11.3419 41.9447 10.8805 41.3806 10.8805 41.1859C10.8805 41.1505 17.7359 41.1217 26.1148 41.1217H41.3492V41.8336ZM44.3961 43.3561V45.5904H43.6344H42.8726V43.3561V41.1217H43.6344H44.3961V43.3561ZM49.451 41.4495C50.0905 41.8731 50.439 42.5457 50.439 43.3561C50.439 44.9555 49.676 45.5262 47.4763 45.5721L45.9195 45.6047V43.3561V41.1074L47.4763 41.14C48.9753 41.1712 49.0485 41.1827 49.451 41.4495ZM9.46813 41.7818C9.57233 42.0611 9.86788 42.5297 10.1249 42.8233L10.5923 43.3569L10.1638 43.8389C9.92811 44.104 9.62311 44.5723 9.486 44.8795C9.34889 45.1867 9.22651 45.4486 9.21422 45.4615C9.20183 45.4743 8.1663 45.2808 6.91302 45.0313C5.65974 44.7818 4.62299 44.577 4.60897 44.5762C4.54275 44.5725 4.59333 42.1364 4.65975 42.1302C4.7017 42.1262 5.69569 41.9251 6.86874 41.6833C9.41156 41.159 9.23322 41.1521 9.46813 41.7818ZM3.06014 43.3606V44.2794L2.67929 44.2097C1.2892 43.9557 1.06139 42.9249 2.32046 42.5863C3.09407 42.3783 3.06014 42.3429 3.06014 43.3606ZM41.3492 44.8795V45.5904H26.1148C17.7359 45.5904 10.8805 45.5616 10.8805 45.5262C10.8805 45.2146 11.6984 44.4169 12.2008 44.2386C12.2846 44.2089 18.8772 44.1809 26.8512 44.1766L41.3492 44.1686V44.8795Z" fill="#25396B"/>
</svg>
