<svg width="52" height="53" viewBox="0 0 52 53" fill="none" xmlns="http://www.w3.org/2000/svg">
<path fill-rule="evenodd" clip-rule="evenodd" d="M27.0886 0.132854C26.7756 0.370611 26.7092 0.820432 26.7092 2.70391V4.57621H18.1733H9.63742L9.38819 4.82555L9.13885 5.07478V25.4935V45.9122H4.81787H0.496796L0.247562 46.1615C-0.180423 46.5894 -0.0442273 47.7564 0.584445 49.048C1.26105 50.4379 2.73452 51.5844 4.24344 51.8951C5.19152 52.0903 47.1221 52.0474 47.889 51.8505C49.831 51.3518 51.3846 49.7722 51.8421 47.8314C51.976 47.2634 51.9954 44.5327 51.9967 26.1283L51.9982 5.07478L51.7489 4.82555L51.4997 4.57621H43.9877C39.8561 4.57621 36.3984 4.60587 36.3039 4.64223C36.045 4.74156 35.8514 5.27821 35.9659 5.57914C36.1682 6.11143 35.9015 6.09295 43.4416 6.0964L50.4748 6.09965V26.5432C50.4748 49.0618 50.5146 47.6426 49.8532 48.6733C47.8994 51.7182 43.2678 50.6213 42.8918 47.0247C42.8418 46.5452 42.7639 46.317 42.5916 46.1447L42.359 45.9122H26.5106H10.6623V26.0059V6.09965H18.6857H26.7092V7.97195C26.7092 10.7787 26.9979 11.1674 28.4032 10.2518L29.0451 9.8336L29.687 10.2518C30.4855 10.772 30.6516 10.772 31.4501 10.2518L32.092 9.8336L32.7339 10.2518C33.6094 10.8223 34.0704 10.7846 34.3224 10.1218C34.472 9.72838 34.4658 0.957541 34.3157 0.526713C34.2539 0.349588 34.1199 0.159971 34.0177 0.10533C33.7249 -0.0513807 27.2976 -0.0257869 27.0886 0.132854ZM32.8029 4.98825V8.44706L32.5771 8.28903C32.2204 8.03909 31.8995 8.10013 31.2104 8.54903L30.5685 8.96727L29.9267 8.54903C29.2376 8.10013 28.9167 8.03909 28.5599 8.28903L28.3342 8.44706V4.98825V1.52934H30.5685H32.8029V4.98825ZM41.4747 47.8415C41.5678 48.4236 41.9881 49.3221 42.4594 49.9463L42.8661 50.485L23.6412 50.4584L4.41619 50.4317L3.83546 50.1595C2.84279 49.6942 1.62323 48.2677 1.62323 47.5717C1.62323 47.4583 4.95498 47.4356 21.5165 47.4356H41.4097L41.4747 47.8415Z" fill="#25396B"/>
<path d="M42.6752 20H19.0502C18.6947 20 18.3803 20.1367 18.1068 20.4102C17.8607 20.6562 17.7377 20.957 17.7377 21.3125V34.4375C17.7377 34.793 17.8607 35.1074 18.1068 35.3809C18.3803 35.627 18.6947 35.75 19.0502 35.75H42.6752C43.0307 35.75 43.3314 35.627 43.5775 35.3809C43.851 35.1074 43.9877 34.793 43.9877 34.4375V21.3125C43.9877 20.957 43.851 20.6562 43.5775 20.4102C43.3314 20.1367 43.0307 20 42.6752 20ZM19.0502 21.3125H21.6752C21.6752 22.0234 21.4154 22.6387 20.8959 23.1582C20.3764 23.6777 19.7611 23.9375 19.0502 23.9375V21.3125ZM42.6752 30.5C41.5814 30.5 40.6518 30.8828 39.8861 31.6484C39.1205 32.4141 38.7377 33.3438 38.7377 34.4375H40.0502C40.0502 33.7266 40.31 33.1113 40.8295 32.5918C41.349 32.0723 41.9643 31.8125 42.6752 31.8125V34.4375H19.0502V31.8125C19.7611 31.8125 20.3764 32.0723 20.8959 32.5918C21.4154 33.1113 21.6752 33.7266 21.6752 34.4375H22.9877C22.9877 33.3438 22.6049 32.4141 21.8393 31.6484C21.0736 30.8828 20.1439 30.5 19.0502 30.5V25.25C20.1439 25.25 21.0736 24.8672 21.8393 24.1016C22.6049 23.3359 22.9877 22.4062 22.9877 21.3125H38.7377C38.7377 22.4062 39.1205 23.3359 39.8861 24.1016C40.6518 24.8672 41.5814 25.25 42.6752 25.25V30.5ZM42.6752 23.9375C41.9643 23.9375 41.349 23.6777 40.8295 23.1582C40.31 22.6387 40.0502 22.0234 40.0502 21.3125H42.6752V23.9375ZM30.8627 23.2812C30.1518 23.2812 29.4955 23.4863 28.8939 23.8965C28.2924 24.3066 27.8139 24.8672 27.4584 25.5781C27.1029 26.2891 26.9252 27.0547 26.9252 27.875C26.9252 28.6953 27.1029 29.4609 27.4584 30.1719C27.8139 30.8828 28.2924 31.4434 28.8939 31.8535C29.4955 32.2637 30.1518 32.4688 30.8627 32.4688C31.5736 32.4688 32.2299 32.2637 32.8314 31.8535C33.433 31.4434 33.9115 30.8828 34.267 30.1719C34.6225 29.4609 34.8002 28.6953 34.8002 27.875C34.8002 27.0547 34.6225 26.2891 34.267 25.5781C33.9115 24.8672 33.433 24.3066 32.8314 23.8965C32.2299 23.4863 31.5736 23.2812 30.8627 23.2812ZM30.8627 31.1562C30.1518 31.1562 29.5365 30.8418 29.017 30.2129C28.4975 29.5566 28.2377 28.7773 28.2377 27.875C28.2377 26.9727 28.4975 26.207 29.017 25.5781C29.5365 24.9219 30.1518 24.5938 30.8627 24.5938C31.5736 24.5938 32.1889 24.9219 32.7084 25.5781C33.2279 26.207 33.4877 26.9727 33.4877 27.875C33.4877 28.7773 33.2279 29.5566 32.7084 30.2129C32.1889 30.8418 31.5736 31.1562 30.8627 31.1562Z" fill="#25396B"/>
</svg>
