<svg width="52" height="53" viewBox="0 0 52 53" fill="none" xmlns="http://www.w3.org/2000/svg">
<path fill-rule="evenodd" clip-rule="evenodd" d="M23.8593 0.0584261C9.93764 1.5389 0.0463691 12.2493 0.000158134 25.8932C-0.0633184 44.6888 18.9949 57.2636 36.3007 49.8445C47.5741 45.0116 53.8927 32.7296 51.3659 20.5612C49.3204 10.7108 41.4104 2.74973 31.5319 0.599246C29.4488 0.14577 25.5936 -0.126011 23.8593 0.0584261ZM29.3945 1.78479C39.3145 3.20859 47.3182 10.4814 49.7118 20.2465C49.9729 21.3116 50.3164 23.3527 50.3164 23.8389C50.3164 23.9418 49.668 23.366 48.7167 22.4184C47.0002 20.7085 46.7773 20.5559 46.3003 20.7639C46.1351 20.8359 44.9431 21.9623 43.6514 23.2671L41.303 25.6393L41.2361 26.8072C40.6031 37.8545 28.829 44.6601 19.0252 39.6454C9.72101 34.8861 7.75435 22.5489 15.1249 15.1783C23.3158 6.98753 37.3168 10.5108 40.6189 21.5939C41.0053 22.8908 41.4891 23.2332 42.1265 22.6607C42.6739 22.1689 41.5223 19.0178 39.9101 16.5965C37.0759 12.3397 32.3341 9.57239 27.2109 9.18504L26.2968 9.11597L24.3925 7.22234L22.4882 5.32871L24.3925 3.41557L26.2968 1.50244L27.3124 1.56714C27.871 1.60258 28.808 1.70059 29.3945 1.78479ZM22.3644 3.21936C20.1253 5.46622 20.1185 5.17921 22.4667 7.53576C23.3989 8.47146 24.1111 9.23693 24.0492 9.23693C23.7547 9.23693 22.0554 9.57219 21.4218 9.75531C14.6189 11.7216 9.8632 17.4193 9.17196 24.4315L9.05293 25.6393L7.16417 27.5436L5.27531 29.4479L3.36127 27.5436L1.44712 25.6393L1.5109 24.6237C2.24296 12.9719 10.9562 3.44868 22.4132 1.77839C24.16 1.52367 24.1638 1.41378 22.3644 3.21936ZM24.0117 13.8608C15.2734 15.2311 10.8021 25.3224 15.6637 32.7015C20.9066 40.6592 32.6841 39.9459 36.9472 31.4125C41.3654 22.5683 33.8151 12.3234 24.0117 13.8608ZM27.6171 15.3786C36.2109 16.7763 39.6814 27.1448 33.6637 33.4433C28.0603 39.3083 18.247 37.0158 15.6908 29.2447C13.2287 21.76 19.8095 14.1088 27.6171 15.3786ZM25.5083 16.8795C25.1626 17.1421 25.1289 17.5411 25.1289 21.3661V25.1539L24.6071 25.2158C23.34 25.3658 23.3298 26.6225 24.5944 26.7722L25.1036 26.8325L25.1639 27.3417C25.3136 28.6063 26.5703 28.5961 26.7203 27.329L26.7822 26.8072H30.57C34.9343 26.8072 35.177 26.7644 35.177 25.9947C35.177 25.2247 34.9356 25.1822 30.5558 25.1822H26.7539V21.3888C26.7539 17.4799 26.7151 17.0507 26.3436 16.852C26.0876 16.715 25.7086 16.7275 25.5083 16.8795ZM21.2324 18.0803C20.6947 18.5032 21.0114 19.3932 21.6995 19.3932C22.0122 19.3932 22.4882 19.0004 22.4882 18.7425C22.4882 18.0516 21.7581 17.6667 21.2324 18.0803ZM29.8755 17.94C29.6835 17.9901 29.3945 18.4663 29.3945 18.7326C29.3945 19.2819 30.3022 19.5784 30.6971 19.1582C31.2641 18.5545 30.704 17.724 29.8755 17.94ZM18.0269 21.2858C17.6133 21.8115 17.9983 22.5416 18.6891 22.5416C18.9471 22.5416 19.3398 22.0656 19.3398 21.7529C19.3398 21.0648 18.4498 20.7481 18.0269 21.2858ZM32.75 21.2405C32.4679 21.5433 32.4856 21.9858 32.7922 22.2923C33.4582 22.9583 34.4404 22.0289 33.8558 21.2858C33.5839 20.9401 33.0502 20.9182 32.75 21.2405ZM50.369 27.3658C49.6788 38.216 42.1951 47.1901 31.6896 49.7651C30.6245 50.0263 28.5834 50.3697 28.0972 50.3697C27.9943 50.3697 28.5706 49.7211 29.5183 48.7701C31.7568 46.5239 31.763 46.8091 29.4246 44.4623L27.7381 42.7697L28.2362 42.7011C35.9344 41.641 41.949 35.3605 42.708 27.5899L42.8291 26.3502L44.7182 24.4459L46.6074 22.5416L48.5205 24.4459L50.4337 26.3502L50.369 27.3658ZM17.13 25.3387C16.5529 25.5813 16.5529 26.4082 17.13 26.6508C17.6665 26.8764 18.2161 26.5444 18.2161 25.9947C18.2161 25.4451 17.6665 25.1131 17.13 25.3387ZM9.3304 28.8385C10.6144 36.3233 16.7586 42.0203 24.3462 42.7614L25.5859 42.8825L27.4902 44.7716L29.3945 46.6608L27.4902 48.5739L25.5859 50.4871L24.5703 50.4224C13.7255 49.7326 4.74465 42.2432 2.17095 31.743C1.90984 30.6779 1.56635 28.6368 1.56635 28.1506C1.56635 28.0477 2.21473 28.6235 3.16596 29.5711C5.41567 31.8121 5.16268 31.8185 7.50288 29.4618C8.39399 28.5644 9.13256 27.8399 9.14403 27.8519C9.15551 27.8639 9.2393 28.3078 9.3304 28.8385ZM18.2055 29.6032C17.5907 29.9371 17.8132 30.8832 18.523 30.9532C19.2311 31.023 19.5999 30.2066 19.0905 29.6972C18.8076 29.4143 18.595 29.3916 18.2055 29.6032ZM32.7922 29.6972C32.3 30.1894 32.6295 30.9713 33.3292 30.9713C34.0972 30.9713 34.301 29.8831 33.5934 29.5606C33.2269 29.3937 33.0687 29.4207 32.7922 29.6972ZM21.1871 32.8034C20.8649 33.1036 20.8867 33.6373 21.2324 33.9092C21.9755 34.4938 22.9049 33.5116 22.2389 32.8456C21.9324 32.539 21.4899 32.5213 21.1871 32.8034ZM29.6438 32.8456C29.3673 33.1221 29.3403 33.2803 29.5072 33.6468C29.8338 34.3634 30.9179 34.1495 30.9179 33.3684C30.9179 32.6816 30.1307 32.3587 29.6438 32.8456ZM25.5083 33.8405C24.9389 34.2728 25.2372 35.2304 25.9414 35.2304C26.4851 35.2304 26.8231 34.681 26.6023 34.1559C26.4174 33.716 25.8773 33.5602 25.5083 33.8405Z" fill="#25396B"/>
</svg>
