<svg width="22" height="17" viewBox="0 0 22 17" fill="none" xmlns="http://www.w3.org/2000/svg">
<path d="M0.429688 5.45703C1.41797 6.23047 2.66406 7.17578 7.04688 10.3555C7.90625 11 9.49609 12.418 11 12.418C12.5469 12.418 14.0938 11 14.9961 10.3555C19.3789 7.17578 20.625 6.23047 21.6133 5.45703C21.7852 5.32812 22 5.45703 22 5.67188V14.4375C22 15.5977 21.0977 16.5 19.9375 16.5H2.0625C0.945312 16.5 0 15.5977 0 14.4375V5.67188C0 5.45703 0.257812 5.32812 0.429688 5.45703ZM11 11C10.0117 11.043 8.59375 9.75391 7.86328 9.23828C2.14844 5.11328 1.71875 4.72656 0.429688 3.69531C0.171875 3.52344 0 3.22266 0 2.87891V2.0625C0 0.945312 0.945312 0 2.0625 0H19.9375C21.0977 0 22 0.945312 22 2.0625V2.87891C22 3.22266 21.8711 3.52344 21.6133 3.69531C20.3242 4.72656 19.8945 5.11328 14.1797 9.23828C13.4492 9.75391 12.0312 11.043 11 11Z" fill="white" fill-opacity="0.9"/>
</svg>
