<svg width="20" height="20" viewBox="0 0 20 20" fill="none" xmlns="http://www.w3.org/2000/svg">
<path d="M18.2668 1.7561C17.1337 0.663415 15.688 0 14.125 0C12.2886 0 10.2958 0.858537 8.38124 2.77073L5.06 6.12683C2.1295 9.05366 2.20765 13.7756 2.83282 15.8439L0.29305 18.4195C-0.0976835 18.7707 -0.0976835 19.3561 0.29305 19.7073C0.644711 20.0976 1.23081 20.0976 1.58247 19.7073L4.16132 17.1707C4.86464 17.3659 5.84147 17.522 6.93553 17.522C9.16271 17.522 11.9369 16.9366 13.8906 14.9463L17.2509 11.6293C20.7675 8.07805 20.6894 4.21463 18.2668 1.7561ZM5.76333 15.5707L7.5607 13.7366H12.4449C10.6866 15.3756 8.26402 15.6488 6.93553 15.6488C6.50572 15.6488 6.11499 15.6098 5.76333 15.5707ZM13.6952 12.4878H8.81105L11.3117 9.99024H16.1568C16.0787 10.1073 16.0006 10.1854 15.9224 10.3024L13.6952 12.4878ZM17.1337 8.74146H12.5621L13.4608 7.88293C13.8124 7.53171 13.8124 6.90732 13.4608 6.5561C13.1091 6.20488 12.4839 6.20488 12.1323 6.5561L4.43483 14.2439C4.23946 12.4488 4.43483 9.40488 6.3885 7.45366C6.3885 7.45366 7.09182 6.71219 9.70974 4.09756C11.1555 2.65366 12.6793 1.9122 14.125 1.9122C15.18 1.9122 16.1178 2.30244 16.9383 3.08293C18.4622 4.6439 18.5013 6.71219 17.1337 8.74146Z" fill="#00AFFF"/>
</svg>
