<svg width="20" height="20" viewBox="0 0 20 20" fill="none" xmlns="http://www.w3.org/2000/svg">
<path d="M20 9.99942C19.9592 4.47555 15.4286 0 9.87755 0C7.06122 0 4.4898 1.16929 2.65306 2.9837L0.816326 1.16929C0.530612 0.887045 0 1.08865 0 1.53217V6.61252C0 6.89476 0.204082 7.09636 0.489796 7.09636H5.71429C6.16327 7.09636 6.36735 6.5722 6.08163 6.28996L4.08163 4.35458C5.55102 2.86274 7.59184 1.93537 9.87755 1.93537C14.3673 1.93537 18.0408 5.56419 18.0408 9.99942C18.0408 14.475 14.3673 18.0635 9.87755 18.0635C7.7551 18.0635 5.87755 17.2974 4.40816 16.0475C4.2449 15.8862 3.91837 15.8862 3.7551 16.0475L3.06122 16.7329C2.85714 16.9345 2.85714 17.2571 3.06122 17.4587C4.85714 19.0311 7.26531 20.0392 9.87755 19.9988C15.4286 19.9988 20 15.5233 20 9.99942ZM13.1429 13.6282L13.7551 12.8622C13.8776 12.6202 13.8367 12.338 13.6327 12.1767L10.8571 10.1607V4.35458C10.8571 4.11266 10.6122 3.87074 10.3673 3.87074H9.38775C9.10204 3.87074 8.89796 4.11266 8.89796 4.35458V11.1687L12.4898 13.7492C12.6939 13.9105 13.0204 13.8702 13.1429 13.6282Z" fill="white" fill-opacity="0.7"/>
</svg>
