<svg width="20" height="20" viewBox="0 0 20 20" fill="none" xmlns="http://www.w3.org/2000/svg">
<path d="M9.64648 4.80859C6.89648 4.80859 4.70508 7.04297 4.70508 9.75C4.70508 12.5 6.89648 14.6914 9.64648 14.6914C12.3535 14.6914 14.5879 12.5 14.5879 9.75C14.5879 7.04297 12.3535 4.80859 9.64648 4.80859ZM9.64648 12.9727C7.88477 12.9727 6.42383 11.5547 6.42383 9.75C6.42383 7.98828 7.8418 6.57031 9.64648 6.57031C11.4082 6.57031 12.8262 7.98828 12.8262 9.75C12.8262 11.5547 11.4082 12.9727 9.64648 12.9727ZM15.9199 4.63672C15.9199 3.99219 15.4043 3.47656 14.7598 3.47656C14.1152 3.47656 13.5996 3.99219 13.5996 4.63672C13.5996 5.28125 14.1152 5.79688 14.7598 5.79688C15.4043 5.79688 15.9199 5.28125 15.9199 4.63672ZM19.1855 5.79688C19.0996 4.25 18.7559 2.875 17.6387 1.75781C16.5215 0.640625 15.1465 0.296875 13.5996 0.210938C12.0098 0.125 7.24023 0.125 5.65039 0.210938C4.10352 0.296875 2.77148 0.640625 1.61133 1.75781C0.494141 2.875 0.150391 4.25 0.0644531 5.79688C-0.0214844 7.38672 -0.0214844 12.1562 0.0644531 13.7461C0.150391 15.293 0.494141 16.625 1.61133 17.7852C2.77148 18.9023 4.10352 19.2461 5.65039 19.332C7.24023 19.418 12.0098 19.418 13.5996 19.332C15.1465 19.2461 16.5215 18.9023 17.6387 17.7852C18.7559 16.625 19.0996 15.293 19.1855 13.7461C19.2715 12.1562 19.2715 7.38672 19.1855 5.79688ZM17.123 15.4219C16.8223 16.2812 16.1348 16.9258 15.3184 17.2695C14.0293 17.7852 11.0215 17.6562 9.64648 17.6562C8.22852 17.6562 5.2207 17.7852 3.97461 17.2695C3.11523 16.9258 2.4707 16.2812 2.12695 15.4219C1.61133 14.1758 1.74023 11.168 1.74023 9.75C1.74023 8.375 1.61133 5.36719 2.12695 4.07812C2.4707 3.26172 3.11523 2.61719 3.97461 2.27344C5.2207 1.75781 8.22852 1.88672 9.64648 1.88672C11.0215 1.88672 14.0293 1.75781 15.3184 2.27344C16.1348 2.57422 16.7793 3.26172 17.123 4.07812C17.6387 5.36719 17.5098 8.375 17.5098 9.75C17.5098 11.168 17.6387 14.1758 17.123 15.4219Z" fill="white" fill-opacity="0.9"/>
</svg>
