<svg width="24" height="24" viewBox="0 0 24 24" fill="none" xmlns="http://www.w3.org/2000/svg">
<path d="M16.1719 7.5C15.7969 5.375 15.2344 3.65625 14.4844 2.34375C13.7344 1.03125 12.9062 0.375 12 0.375C11.0938 0.375 10.2656 1.03125 9.51562 2.34375C8.76562 3.65625 8.21875 5.375 7.875 7.5H16.1719ZM7.5 12C7.5 13 7.54688 14 7.64062 15H16.3594C16.4531 14 16.5 13 16.5 12C16.5 11 16.4531 10 16.3594 9H7.64062C7.54688 10 7.5 11 7.5 12ZM22.7344 7.5C22.0469 5.90625 21.0469 4.53125 19.7344 3.375C18.4531 2.1875 16.9844 1.34375 15.3281 0.84375C16.4219 2.40625 17.2031 4.625 17.6719 7.5H22.7344ZM8.67188 0.84375C7.01562 1.34375 5.53125 2.1875 4.21875 3.375C2.9375 4.53125 1.95312 5.90625 1.26562 7.5H6.32812C6.76562 4.625 7.54688 2.40625 8.67188 0.84375ZM23.2031 9H17.8594C17.9531 10.0312 18 11.0312 18 12C18 12.9688 17.9531 13.9688 17.8594 15H23.2031C23.4844 14 23.625 13 23.625 12C23.625 11 23.4844 10 23.2031 9ZM6 12C6 11.0312 6.04688 10.0312 6.14062 9H0.796875C0.515625 10.0312 0.375 11.0312 0.375 12C0.375 12.9688 0.515625 13.9688 0.796875 15H6.14062C6.04688 13.9375 6 12.9375 6 12ZM7.875 16.5C8.21875 18.625 8.76562 20.3438 9.51562 21.6562C10.2656 22.9688 11.0938 23.625 12 23.625C12.9062 23.625 13.7344 22.9688 14.4844 21.6562C15.2344 20.3438 15.7812 18.625 16.125 16.5H7.875ZM15.3281 23.1562C16.9844 22.6562 18.4531 21.8281 19.7344 20.6719C21.0469 19.4844 22.0469 18.0938 22.7344 16.5H17.6719C17.2344 19.375 16.4531 21.5938 15.3281 23.1562ZM1.26562 16.5C1.95312 18.0938 2.9375 19.4844 4.21875 20.6719C5.53125 21.8281 7.01562 22.6562 8.67188 23.1562C7.57812 21.5938 6.79688 19.375 6.32812 16.5H1.26562Z" fill="#25396B"/>
</svg>
