<svg width="40" height="51" viewBox="0 0 40 51" fill="none" xmlns="http://www.w3.org/2000/svg">
<path fill-rule="evenodd" clip-rule="evenodd" d="M25.6959 14.501L31.4926 24.2569C32.8496 26.5409 32.7586 29.4046 31.2592 31.5977C28.568 35.5343 22.7713 35.5672 20.0324 31.6637C18.4723 29.4402 18.3772 26.5026 19.7914 24.1835L25.6959 14.501ZM27.2132 20.4118L28.8803 23.2328C29.2666 23.8866 29.2407 24.7047 28.8137 25.3327C28.0413 26.4687 26.37 26.4782 25.5839 25.3517C25.1396 24.7149 25.1125 23.8757 25.5151 23.2118L27.2132 20.4118Z" fill="white"/>
<path d="M1.81642 35.3548L0.869141 32.1195L1.15041 34.6007C1.95112 41.6641 6.73216 47.6422 13.4468 49.9758C17.5476 51.401 22.0191 51.337 26.0774 49.7951L26.2721 49.7212C32.1431 47.4906 36.5378 42.5103 38.0202 36.4074L39.0618 32.1195L37.4455 36.3913C35.4448 41.6788 31.1123 45.8326 25.7682 47.6768C21.9315 49.0008 17.7074 49.0527 13.8513 47.7865C8.03717 45.8774 3.53598 41.2278 1.81642 35.3548Z" fill="white"/>
<path fill-rule="evenodd" clip-rule="evenodd" d="M35.269 33.4029C35.1477 33.6084 35.0193 33.8109 34.8837 34.01C30.5334 40.398 21.1325 40.4514 16.7049 34.1167C14.1965 30.5278 14.0436 25.7944 16.3168 22.0522L24.9852 7.78239L20.3611 0L6.9946 21.9193C3.79318 27.1692 4.00838 33.8194 7.54016 38.853C13.7404 47.6898 26.8631 47.6151 32.9555 38.7036C34.0738 37.0677 34.8461 35.2671 35.269 33.4029Z" fill="white"/>
</svg>
