<svg width="20" height="20" viewBox="0 0 20 20" fill="none" xmlns="http://www.w3.org/2000/svg">
<path d="M2.8125 0.125H17.9375C19.0977 0.125 20 1.07031 20 2.1875V17.3125C20 18.4727 19.0977 19.375 17.9375 19.375H2.8125C1.69531 19.375 0.75 18.4727 0.75 17.3125V2.1875C0.75 1.07031 1.69531 0.125 2.8125 0.125ZM15.9609 16.625C16.3047 16.625 16.5625 16.4531 16.6055 16.1523L17.25 13.3594C17.25 13.3164 17.25 13.2305 17.25 13.1875C17.25 12.9727 17.0781 12.7148 16.8633 12.6289L13.8555 11.3398C13.8125 11.2969 13.6836 11.2969 13.6406 11.2969C13.4688 11.2969 13.2109 11.3828 13.125 11.5117L11.793 13.1445C9.6875 12.1562 8.01172 10.4375 7.02344 8.375L8.65625 7.04297C8.78516 6.95703 8.87109 6.69922 8.87109 6.57031C8.87109 6.48438 8.87109 6.35547 8.82812 6.3125L7.53906 3.30469C7.45312 3.08984 7.19531 2.91797 6.98047 2.91797C6.9375 2.91797 6.85156 2.91797 6.80859 2.91797L4.01562 3.5625C3.75781 3.60547 3.5 3.90625 3.5 4.16406C3.5 11.082 9.08594 16.625 15.9609 16.625Z" fill="white" fill-opacity="0.9"/>
</svg>
