<svg width="22" height="22" viewBox="0 0 22 22" fill="none" xmlns="http://www.w3.org/2000/svg">
<path d="M10.6777 0.09375C4.79102 0.09375 0.0214844 4.86328 0.0214844 10.75C0.0214844 16.6367 4.79102 21.4062 10.6777 21.4062C16.5645 21.4062 21.334 16.6367 21.334 10.75C21.334 4.86328 16.5645 0.09375 10.6777 0.09375ZM15.877 7.39844L14.1582 15.6484C14.0293 16.25 13.6855 16.3789 13.1699 16.1211L10.5059 14.1445L9.2168 15.3906C9.08789 15.5195 8.95898 15.6484 8.70117 15.6484L8.87305 12.9414L13.8145 8.47266C14.0293 8.30078 13.7715 8.17188 13.4707 8.34375L7.36914 12.2109L4.74805 11.3945C4.18945 11.2227 4.18945 10.793 4.87695 10.5352L15.1465 6.58203C15.6191 6.41016 16.0488 6.71094 15.877 7.39844Z" fill="white" fill-opacity="0.9"/>
</svg>
